<?xml version="1.0" encoding="UTF-8" standalone="no"?>
<!-- Created with Inkscape (http://www.inkscape.org/) -->

<svg width="25.542072mm" height="25.542076mm" viewBox="0 0 25.542072 25.542076" version="1.1" id="svg5" inkscape:version="1.1 (c4e8f9ed74, 2021-05-24)" inkscape:export-xdpi="600" inkscape:export-ydpi="600"
   xmlns:inkscape="http://www.inkscape.org/namespaces/inkscape"
   xmlns:sodipodi="http://sodipodi.sourceforge.net/DTD/sodipodi-0.dtd"
   xmlns:xlink="http://www.w3.org/1999/xlink"
   xmlns="http://www.w3.org/2000/svg"
   xmlns:svg="http://www.w3.org/2000/svg">
   <sodipodi:namedview id="namedview7" pagecolor="#ffffff" bordercolor="#666666" borderopacity="1.0" inkscape:pageshadow="2" inkscape:pageopacity="0.0" inkscape:pagecheckerboard="0" inkscape:document-units="mm" showgrid="true" inkscape:snap-global="true" inkscape:snap-bbox="true" inkscape:object-paths="false" inkscape:snap-intersection-paths="true" inkscape:snap-grids="false" inkscape:snap-bbox-midpoints="true" inkscape:snap-midpoints="true" inkscape:zoom="4" inkscape:cx="42.875" inkscape:cy="68.375" inkscape:window-width="1388" inkscape:window-height="1381" inkscape:window-x="2418" inkscape:window-y="515" inkscape:window-maximized="0" inkscape:current-layer="layer5" inkscape:snap-smooth-nodes="false" showguides="false" inkscape:guide-bbox="true" inkscape:snap-nodes="true" inkscape:object-nodes="true" inkscape:snap-others="false" inkscape:snap-to-guides="true" inkscape:snap-object-midpoints="false" inkscape:bbox-paths="true" inkscape:bbox-nodes="true" inkscape:snap-bbox-edge-midpoints="true" fit-margin-top="0" fit-margin-left="1.773" fit-margin-right="1.773" fit-margin-bottom="0" width="21.99607mm" height="25.54208mm">
      <inkscape:grid type="xygrid" id="grid9" originx="-63.957351" originy="-63.693254" />
      <sodipodi:guide position="8.8030605,4.3040886" orientation="1,0" id="guide1672" />
      <sodipodi:guide position="16.740562,2.9811585" orientation="1,0" id="guide1674" />
   </sodipodi:namedview>
   <defs id="defs2">
      <inkscape:path-effect effect="skeletal" id="path-effect7312" is_visible="true" lpeversion="1" pattern="m 76.720241,66.3316 v 1.192691" copytype="repeated" prop_scale="1.2" scale_y_rel="true" spacing="5.45" normal_offset="0.8" tang_offset="0" prop_units="false" vertical_pattern="false" hide_knot="false" fuse_tolerance="0" />
      <inkscape:path-effect effect="skeletal" id="path-effect7257" is_visible="true" lpeversion="1" pattern="m 73.224936,50.75808 v 1.192691" copytype="repeated" prop_scale="1.2" scale_y_rel="true" spacing="5.45" normal_offset="0.8" tang_offset="0" prop_units="false" vertical_pattern="false" hide_knot="false" fuse_tolerance="0" />
      <inkscape:path-effect effect="skeletal" id="path-effect871" is_visible="true" lpeversion="1" pattern="m 73.224936,50.75808 v 1.192691" copytype="repeated" prop_scale="1.2" scale_y_rel="true" spacing="5.45" normal_offset="0.8" tang_offset="0" prop_units="false" vertical_pattern="false" hide_knot="false" fuse_tolerance="0" />
      <inkscape:path-effect effect="circle_with_radius" id="path-effect1482" is_visible="true" lpeversion="1" />
      <inkscape:path-effect effect="circle_3pts" id="path-effect6057" is_visible="true" lpeversion="1" />
      <inkscape:path-effect effect="circle_with_radius" id="path-effect6053" is_visible="true" lpeversion="1" />
      <linearGradient id="linearGradient11301" inkscape:collect="always">
         <stop id="stop11303" offset="0" style="stop-color:#ffe052;stop-opacity:1" />
         <stop id="stop11305" offset="1" style="stop-color:#ffc331;stop-opacity:1" />
      </linearGradient>
      <linearGradient inkscape:collect="always" xlink:href="#linearGradient9515" id="linearGradient3616" gradientUnits="userSpaceOnUse" gradientTransform="matrix(3.7795276,0,0,3.7795276,13.210602,58.860542)" x1="63.839264" y1="49.314426" x2="74.606255" y2="62.528046" />
      <linearGradient id="linearGradient9515" inkscape:collect="always">
         <stop id="stop9517" offset="0" style="stop-color:#387eb8;stop-opacity:1" />
         <stop id="stop9519" offset="1" style="stop-color:#366994;stop-opacity:1" />
      </linearGradient>
      <linearGradient inkscape:collect="always" xlink:href="#linearGradient11301" id="linearGradient4511" x1="274.89026" y1="273.58655" x2="319.81445" y2="324.5174" gradientUnits="userSpaceOnUse" />
   </defs>
   <g inkscape:groupmode="layer" id="layer5" inkscape:label="watch" style="display:inline" transform="translate(-63.957355,-63.693254)">
      <path id="path3880" style="color:#000000;display:inline;fill:url(#linearGradient3616);fill-opacity:1;stroke-width:3.77953;-inkscape-stroke:none" d="m 308.18555,277.20508 -15.88282,8.90234 c -0.67876,-0.40744 -1.46793,-0.64258 -2.30468,-0.64258 -2.47654,0 -4.53321,2.06449 -4.53321,4.54102 0,2.47653 2.05667,4.53125 4.53321,4.53125 2.45948,0 4.51093,-2.02682 4.53906,-4.48047 l 15.87109,-8.89453 z M 283,240.73047 v 4.54101 h 4.92383 v 3.22657 c -8.63629,0.43138 -16.55523,3.49831 -23.00391,8.38867 l -2.09961,-2.47852 2.06836,-1.74023 -2.92383,-3.47461 c -1.28049,1.07396 -2.54089,2.12997 -3.81445,3.20898 l -3.83789,3.23047 2.92188,3.47461 2.11523,-1.7793 2.10742,2.48438 c -8.02877,7.58949 -13.02738,18.32659 -13.02734,30.18555 0.008,9.86099 3.52284,19.40439 9.91406,26.91406 l 3.45508,-2.9375 c -1.01063,-1.18748 -1.93933,-2.43367 -2.78516,-3.72656 l 3.8086,-2.30078 -2.33985,-3.88282 -3.71484,2.24219 c -2.16106,-4.39852 -3.43751,-9.20456 -3.73047,-14.14258 l 3.99023,0.0156 0.0137,-4.53907 -3.99414,-0.0117 c 0.31827,-5.05233 1.64488,-9.83402 3.78906,-14.14063 l 3.72656,2.27344 2.36914,-3.86719 -3.82617,-2.33398 c 2.7914,-4.21714 6.4243,-7.82941 10.66797,-10.59766 l 2.3125,3.83008 3.88281,-2.34766 -2.24219,-3.72656 c 4.30446,-2.10462 9.08394,-3.40245 14.14844,-3.69141 l -0.0215,3.99219 4.5332,0.0234 0.0215,-3.99414 c 4.93961,0.32642 9.74128,1.63838 14.12891,3.83398 l -2.27344,3.71094 3.86914,2.37695 2.33008,-3.81054 c 1.68321,1.11878 3.28476,2.37769 4.78125,3.77539 l 3.0918,-3.31446 c -7.19268,-6.71781 -16.5046,-10.62365 -26.25586,-11.11914 v -3.23047 h 4.92383 v -4.54101 z" transform="scale(0.26458333)" />
      <path id="path3888" style="color:#000000;display:inline;fill:url(#linearGradient4511);fill-opacity:1;stroke-width:1.30016;-inkscape-stroke:none" d="m 287.73047,260.99414 c -0.0248,8.36775 -0.002,16.73879 0,25.09342 l 0.11914,-0.068 c 0.12837,-0.0705 0.25928,-0.13532 0.39453,-0.19336 0.13525,-0.058 0.27468,-0.10956 0.41602,-0.15429 0.14133,-0.0447 0.28502,-0.0827 0.43164,-0.11329 0.14661,-0.0306 0.29616,-0.0546 0.44726,-0.0703 0.1511,-0.0157 0.3042,-0.0234 0.45899,-0.0234 0.15478,0 0.30783,0.008 0.45898,0.0234 0.15115,0.0157 0.30055,0.0397 0.44727,0.0703 0.14671,0.0306 0.29016,0.0686 0.43164,0.11329 0.14147,0.0447 0.28059,0.0963 0.41601,0.15429 0.13543,0.058 0.26792,0.12283 0.39649,0.19336 l 0.12304,0.068 c -0.002,-8.36022 -0.0248,-16.73079 0,-25.07779 z m 33.88281,2.13281 -3.44726,2.93946 c 1.03246,1.20974 1.97841,2.47935 2.83984,3.79882 l -3.7793,2.27344 2.33985,3.88281 3.67773,-2.20898 c 2.12387,4.33242 3.39001,9.0574 3.70313,13.91602 h -3.98438 v 4.53906 h 3.98242 c -0.31642,4.99141 -1.63652,9.77075 -3.79297,14.11133 l -3.67382,-2.23243 -2.35547,3.875 3.78125,2.29883 c -2.75833,4.17702 -6.37542,7.78119 -10.65039,10.57422 l -2.26953,-3.74219 -3.875,2.34766 2.20312,3.63477 c -0.51646,0.25346 -1.02714,0.51526 -1.55859,0.74609 -4.04594,1.75728 -8.28838,2.73019 -12.53516,2.98437 l 0.006,-3.89453 -4.54102,-0.008 -0.006,3.88672 c -4.87889,-0.30788 -9.67322,-1.55858 -14.09179,-3.74414 l 2.22851,-3.65039 -3.87695,-2.36133 -2.28125,3.74023 c -1.70729,-1.12386 -3.3449,-2.3819 -4.875,-3.80468 l -3.08594,3.32226 c 3.50487,3.25903 7.47383,5.82625 11.71289,7.66992 l 5.27539,9.2461 h 22.63282 l 5.27148,-9.24219 c 15.13295,-6.58477 24.93977,-21.51433 24.97656,-38.01953 v -0.008 -0.008 c -0.0272,-9.8513 -3.55576,-19.36972 -9.95117,-26.86328 z" transform="scale(0.26458333)" />
   </g>
</svg>
