<?xml version="1.0" encoding="UTF-8" standalone="no"?>
<!-- Created with Inkscape (http://www.inkscape.org/) -->

<svg width="103.60738mm" height="25.542076mm" viewBox="0 0 103.60737 25.542076" version="1.1" id="svg5" inkscape:version="1.1 (c4e8f9ed74, 2021-05-24)" sodipodi:docname="logo_name.svg" inkscape:export-xdpi="600" inkscape:export-ydpi="600"
   xmlns:inkscape="http://www.inkscape.org/namespaces/inkscape"
   xmlns:sodipodi="http://sodipodi.sourceforge.net/DTD/sodipodi-0.dtd"
   xmlns:xlink="http://www.w3.org/1999/xlink"
   xmlns="http://www.w3.org/2000/svg"
   xmlns:svg="http://www.w3.org/2000/svg">
   <sodipodi:namedview id="namedview7" pagecolor="#ffffff" bordercolor="#666666" borderopacity="1.0" inkscape:pageshadow="2" inkscape:pageopacity="0.0" inkscape:pagecheckerboard="0" inkscape:document-units="mm" showgrid="true" inkscape:snap-global="true" inkscape:snap-bbox="true" inkscape:object-paths="false" inkscape:snap-intersection-paths="false" inkscape:snap-grids="true" inkscape:snap-bbox-midpoints="false" inkscape:snap-midpoints="true" inkscape:zoom="2.5600001" inkscape:cx="212.69531" inkscape:cy="131.64062" inkscape:window-width="1924" inkscape:window-height="1074" inkscape:window-x="1409" inkscape:window-y="528" inkscape:window-maximized="0" inkscape:current-layer="layer5" inkscape:snap-smooth-nodes="false" showguides="false" inkscape:guide-bbox="true" inkscape:snap-nodes="true" inkscape:object-nodes="true" inkscape:snap-others="false" inkscape:snap-to-guides="true" inkscape:snap-object-midpoints="false" inkscape:bbox-paths="true" inkscape:bbox-nodes="true" inkscape:snap-bbox-edge-midpoints="true" fit-margin-top="0" fit-margin-left="1.773" fit-margin-right="1.773" fit-margin-bottom="0" width="21.99607mm" height="25.54208mm">
      <inkscape:grid type="xygrid" id="grid9" originx="-63.95734" originy="-63.693254" />
      <sodipodi:guide position="8.8030601,4.3040877" orientation="1,0" id="guide1672" />
      <sodipodi:guide position="16.740561,2.9811578" orientation="1,0" id="guide1674" />
   </sodipodi:namedview>
   <defs id="defs2">
      <inkscape:path-effect effect="skeletal" id="path-effect7312" is_visible="true" lpeversion="1" pattern="m 76.720241,66.3316 v 1.192691" copytype="repeated" prop_scale="1.2" scale_y_rel="true" spacing="5.45" normal_offset="0.8" tang_offset="0" prop_units="false" vertical_pattern="false" hide_knot="false" fuse_tolerance="0" />
      <inkscape:path-effect effect="skeletal" id="path-effect7257" is_visible="true" lpeversion="1" pattern="m 73.224936,50.75808 v 1.192691" copytype="repeated" prop_scale="1.2" scale_y_rel="true" spacing="5.45" normal_offset="0.8" tang_offset="0" prop_units="false" vertical_pattern="false" hide_knot="false" fuse_tolerance="0" />
      <inkscape:path-effect effect="skeletal" id="path-effect871" is_visible="true" lpeversion="1" pattern="m 73.224936,50.75808 v 1.192691" copytype="repeated" prop_scale="1.2" scale_y_rel="true" spacing="5.45" normal_offset="0.8" tang_offset="0" prop_units="false" vertical_pattern="false" hide_knot="false" fuse_tolerance="0" />
      <inkscape:path-effect effect="circle_with_radius" id="path-effect1482" is_visible="true" lpeversion="1" />
      <inkscape:path-effect effect="circle_3pts" id="path-effect6057" is_visible="true" lpeversion="1" />
      <inkscape:path-effect effect="circle_with_radius" id="path-effect6053" is_visible="true" lpeversion="1" />
      <linearGradient id="linearGradient11301" inkscape:collect="always">
         <stop id="stop11303" offset="0" style="stop-color:#ffe052;stop-opacity:1" />
         <stop id="stop11305" offset="1" style="stop-color:#ffc331;stop-opacity:1" />
      </linearGradient>
      <linearGradient inkscape:collect="always" xlink:href="#linearGradient9515" id="linearGradient3616" gradientUnits="userSpaceOnUse" gradientTransform="matrix(3.7795276,0,0,3.7795276,13.210602,58.860542)" x1="63.839264" y1="49.314426" x2="74.606255" y2="62.528046" />
      <linearGradient id="linearGradient9515" inkscape:collect="always">
         <stop id="stop9517" offset="0" style="stop-color:#387eb8;stop-opacity:1" />
         <stop id="stop9519" offset="1" style="stop-color:#366994;stop-opacity:1" />
      </linearGradient>
      <linearGradient inkscape:collect="always" xlink:href="#linearGradient11301" id="linearGradient4511" x1="274.89026" y1="273.58655" x2="319.81445" y2="324.5174" gradientUnits="userSpaceOnUse" />
   </defs>
   <g inkscape:groupmode="layer" id="layer5" inkscape:label="watch" style="display:inline" transform="translate(-63.957355,-63.693254)">
      <path id="path3880" style="color:#000000;display:inline;fill:url(#linearGradient3616);fill-opacity:1;stroke-width:3.77953;-inkscape-stroke:none" d="m 308.18555,277.20508 -15.88282,8.90234 c -0.67876,-0.40744 -1.46793,-0.64258 -2.30468,-0.64258 -2.47654,0 -4.53321,2.06449 -4.53321,4.54102 0,2.47653 2.05667,4.53125 4.53321,4.53125 2.45948,0 4.51093,-2.02682 4.53906,-4.48047 l 15.87109,-8.89453 z M 283,240.73047 v 4.54101 h 4.92383 v 3.22657 c -8.63629,0.43138 -16.55523,3.49831 -23.00391,8.38867 l -2.09961,-2.47852 2.06836,-1.74023 -2.92383,-3.47461 c -1.28049,1.07396 -2.54089,2.12997 -3.81445,3.20898 l -3.83789,3.23047 2.92188,3.47461 2.11523,-1.7793 2.10742,2.48438 c -8.02877,7.58949 -13.02738,18.32659 -13.02734,30.18555 0.008,9.86099 3.52284,19.40439 9.91406,26.91406 l 3.45508,-2.9375 c -1.01063,-1.18748 -1.93933,-2.43367 -2.78516,-3.72656 l 3.8086,-2.30078 -2.33985,-3.88282 -3.71484,2.24219 c -2.16106,-4.39852 -3.43751,-9.20456 -3.73047,-14.14258 l 3.99023,0.0156 0.0137,-4.53907 -3.99414,-0.0117 c 0.31827,-5.05233 1.64488,-9.83402 3.78906,-14.14063 l 3.72656,2.27344 2.36914,-3.86719 -3.82617,-2.33398 c 2.7914,-4.21714 6.4243,-7.82941 10.66797,-10.59766 l 2.3125,3.83008 3.88281,-2.34766 -2.24219,-3.72656 c 4.30446,-2.10462 9.08394,-3.40245 14.14844,-3.69141 l -0.0215,3.99219 4.5332,0.0234 0.0215,-3.99414 c 4.93961,0.32642 9.74128,1.63838 14.12891,3.83398 l -2.27344,3.71094 3.86914,2.37695 2.33008,-3.81054 c 1.68321,1.11878 3.28476,2.37769 4.78125,3.77539 l 3.0918,-3.31446 c -7.19268,-6.71781 -16.5046,-10.62365 -26.25586,-11.11914 v -3.23047 h 4.92383 v -4.54101 z" transform="scale(0.26458333)" />
      <path id="path3888" style="color:#000000;display:inline;fill:url(#linearGradient4511);fill-opacity:1;stroke-width:1.30016;-inkscape-stroke:none" d="m 287.73047,260.99414 c -0.0248,8.36775 -0.002,16.73879 0,25.09342 l 0.11914,-0.068 c 0.12837,-0.0705 0.25928,-0.13532 0.39453,-0.19336 0.13525,-0.058 0.27468,-0.10956 0.41602,-0.15429 0.14133,-0.0447 0.28502,-0.0827 0.43164,-0.11329 0.14661,-0.0306 0.29616,-0.0546 0.44726,-0.0703 0.1511,-0.0157 0.3042,-0.0234 0.45899,-0.0234 0.15478,0 0.30783,0.008 0.45898,0.0234 0.15115,0.0157 0.30055,0.0397 0.44727,0.0703 0.14671,0.0306 0.29016,0.0686 0.43164,0.11329 0.14147,0.0447 0.28059,0.0963 0.41601,0.15429 0.13543,0.058 0.26792,0.12283 0.39649,0.19336 l 0.12304,0.068 c -0.002,-8.36022 -0.0248,-16.73079 0,-25.07779 z m 33.88281,2.13281 -3.44726,2.93946 c 1.03246,1.20974 1.97841,2.47935 2.83984,3.79882 l -3.7793,2.27344 2.33985,3.88281 3.67773,-2.20898 c 2.12387,4.33242 3.39001,9.0574 3.70313,13.91602 h -3.98438 v 4.53906 h 3.98242 c -0.31642,4.99141 -1.63652,9.77075 -3.79297,14.11133 l -3.67382,-2.23243 -2.35547,3.875 3.78125,2.29883 c -2.75833,4.17702 -6.37542,7.78119 -10.65039,10.57422 l -2.26953,-3.74219 -3.875,2.34766 2.20312,3.63477 c -0.51646,0.25346 -1.02714,0.51526 -1.55859,0.74609 -4.04594,1.75728 -8.28838,2.73019 -12.53516,2.98437 l 0.006,-3.89453 -4.54102,-0.008 -0.006,3.88672 c -4.87889,-0.30788 -9.67322,-1.55858 -14.09179,-3.74414 l 2.22851,-3.65039 -3.87695,-2.36133 -2.28125,3.74023 c -1.70729,-1.12386 -3.3449,-2.3819 -4.875,-3.80468 l -3.08594,3.32226 c 3.50487,3.25903 7.47383,5.82625 11.71289,7.66992 l 5.27539,9.2461 h 22.63282 l 5.27148,-9.24219 c 15.13295,-6.58477 24.93977,-21.51433 24.97656,-38.01953 v -0.008 -0.008 c -0.0272,-9.8513 -3.55576,-19.36972 -9.95117,-26.86328 z" transform="scale(0.26458333)" />
      <g aria-label="scheduler" id="text4164" style="font-size:14.1111px;line-height:1.25;font-family:'Arial Black';-inkscape-font-specification:'Arial Black, ';letter-spacing:0px;word-spacing:0px;fill:#646464;stroke-width:0.264583">
         <path d="m 89.958341,79.667828 2.783635,-0.261827 q 0.172254,0.496093 0.482313,0.709689 0.310058,0.213596 0.826822,0.213596 0.564995,0 0.875054,-0.241157 0.241156,-0.179145 0.241156,-0.447862 0,-0.303168 -0.316949,-0.468532 -0.227376,-0.117134 -1.205782,-0.289388 -1.460719,-0.254937 -2.032605,-0.468533 -0.564995,-0.220486 -0.957736,-0.73725 -0.38585,-0.516764 -0.38585,-1.178221 0,-0.72347 0.420301,-1.247124 0.420302,-0.523654 1.157552,-0.778591 0.737249,-0.261827 1.977483,-0.261827 1.309135,0 1.929252,0.199815 0.627007,0.199816 1.040418,0.620117 0.420301,0.420301 0.695909,1.136881 l -2.659612,0.261827 q -0.103353,-0.3514 -0.344509,-0.516764 -0.330729,-0.220486 -0.799262,-0.220486 -0.475423,0 -0.695909,0.172254 -0.213595,0.165365 -0.213595,0.406521 0,0.268718 0.275607,0.406521 0.275607,0.137804 1.198892,0.248047 1.398708,0.158474 2.080836,0.440972 0.682129,0.282498 1.040418,0.806152 0.36518,0.523654 0.36518,1.150661 0,0.633897 -0.38585,1.233343 -0.37896,0.599446 -1.205783,0.957736 -0.819932,0.351399 -2.23931,0.351399 -2.005044,0 -2.859427,-0.571885 -0.847493,-0.571886 -1.088649,-1.626084 z" id="path8108" />
         <path d="m 104.53108,78.834115 2.66651,0.303169 q -0.22049,0.833712 -0.72347,1.446939 -0.50299,0.606336 -1.28847,0.943955 -0.77859,0.337619 -1.98437,0.337619 -1.16444,0 -1.94303,-0.213596 -0.77171,-0.220486 -1.329811,-0.702799 -0.558105,-0.489203 -0.875053,-1.14377 -0.316949,-0.654568 -0.316949,-1.736327 0,-1.129991 0.385851,-1.881021 0.282497,-0.551215 0.7717,-0.985296 0.489202,-0.440972 1.005972,-0.654568 0.81993,-0.337619 2.1015,-0.337619 1.79145,0 2.72852,0.640787 0.94395,0.640787 1.32291,1.874131 l -2.63894,0.351399 q -0.12402,-0.468533 -0.45475,-0.702799 -0.32384,-0.241156 -0.87506,-0.241156 -0.6959,0 -1.12999,0.502983 -0.42719,0.496094 -0.42719,1.508951 0,0.902614 0.42719,1.371147 0.4272,0.468532 1.08865,0.468532 0.55122,0 0.92329,-0.282497 0.37896,-0.282498 0.56499,-0.868164 z" id="path8110" />
         <path d="m 108.24489,71.59253 h 2.80431 v 3.720701 q 0.57188,-0.592556 1.13688,-0.847493 0.56499,-0.254937 1.33669,-0.254937 1.14378,0 1.79834,0.695909 0.66146,0.695908 0.66146,2.135957 v 4.650875 h -2.81808 v -4.023868 q 0,-0.689018 -0.25494,-0.971516 -0.25494,-0.289388 -0.71658,-0.289388 -0.50987,0 -0.82682,0.38585 -0.31695,0.385851 -0.31695,1.384928 v 3.513994 h -2.80431 z" id="path8112" />
         <path d="m 125.78042,78.730763 h -5.62239 q 0.0758,0.675238 0.36517,1.005967 0.40653,0.475423 1.06109,0.475423 0.41341,0 0.78548,-0.206706 0.22738,-0.130914 0.48921,-0.461642 l 2.76296,0.254936 q -0.63389,1.10243 -1.52962,1.584743 -0.89572,0.475423 -2.57004,0.475423 -1.45383,0 -2.28754,-0.406521 -0.83371,-0.413411 -1.38493,-1.302245 -0.54432,-0.895724 -0.54432,-2.101507 0,-1.715656 1.09554,-2.776745 1.10243,-1.061088 3.03857,-1.061088 1.57096,0 2.48047,0.475423 0.9095,0.475422 1.38492,1.378037 0.47543,0.902614 0.47543,2.349553 z m -2.85254,-1.343587 q -0.0827,-0.813041 -0.44097,-1.164441 -0.3514,-0.351399 -0.93018,-0.351399 -0.66835,0 -1.06798,0.530544 -0.25493,0.330729 -0.32383,0.985296 z" id="path8114" />
         <path d="m 134.77211,71.59253 v 10.101012 h -2.62516 v -1.081759 q -0.55122,0.689019 -1.00597,0.930175 -0.60633,0.316949 -1.35047,0.316949 -1.49517,0 -2.28755,-1.136881 -0.78548,-1.13688 -0.78548,-2.762964 0,-1.819009 0.86817,-2.783635 0.87505,-0.964626 2.21864,-0.964626 0.65456,0 1.18511,0.220486 0.53743,0.220486 0.95084,0.661458 V 71.59253 Z m -2.8112,6.421653 q 0,-0.861273 -0.36518,-1.281574 -0.36518,-0.427192 -0.92328,-0.427192 -0.4892,0 -0.81993,0.406521 -0.33073,0.406521 -0.33073,1.364257 0,0.895724 0.33762,1.316025 0.34451,0.413412 0.84749,0.413412 0.53744,0 0.89572,-0.420302 0.35829,-0.420301 0.35829,-1.371147 z" id="path8116" />
         <path d="m 144.19099,81.693542 h -2.61827 v -1.185111 q -0.58566,0.730359 -1.18511,1.040418 -0.59256,0.310058 -1.46072,0.310058 -1.15755,0 -1.81901,-0.689019 -0.65457,-0.695908 -0.65457,-2.135957 v -4.657766 h 2.81809 v 4.023869 q 0,0.689018 0.25494,0.978406 0.25493,0.289388 0.71658,0.289388 0.50298,0 0.81993,-0.38585 0.32384,-0.385851 0.32384,-1.384928 v -3.520885 h 2.8043 z" id="path8118" />
         <path d="m 145.98933,71.59253 h 2.8112 v 10.101012 h -2.8112 z" id="path8120" />
         <path d="m 158.71551,78.730763 h -5.6224 q 0.0758,0.675238 0.36518,1.005967 0.40652,0.475423 1.06109,0.475423 0.41341,0 0.78548,-0.206706 0.22738,-0.130914 0.48921,-0.461642 l 2.76296,0.254936 q -0.6339,1.10243 -1.52962,1.584743 -0.89572,0.475423 -2.57004,0.475423 -1.45383,0 -2.28754,-0.406521 -0.83371,-0.413411 -1.38493,-1.302245 -0.54432,-0.895724 -0.54432,-2.101507 0,-1.715656 1.09554,-2.776745 1.10243,-1.061088 3.03857,-1.061088 1.57096,0 2.48047,0.475423 0.9095,0.475422 1.38492,1.378037 0.47543,0.902614 0.47543,2.349553 z m -2.85254,-1.343587 q -0.0827,-0.813041 -0.44097,-1.164441 -0.3514,-0.351399 -0.93018,-0.351399 -0.66835,0 -1.06798,0.530544 -0.25493,0.330729 -0.32384,0.985296 z" id="path8122" />
         <path d="m 160.03153,74.376165 h 2.62516 v 1.198893 q 0.37896,-0.778591 0.77859,-1.067979 0.40653,-0.296278 0.99908,-0.296278 0.62012,0 1.35737,0.38585 l -0.86817,1.998154 q -0.49609,-0.206705 -0.78548,-0.206705 -0.55121,0 -0.85438,0.454752 -0.43408,0.640787 -0.43408,2.397784 v 2.452906 h -2.81809 z" id="path8124" />
      </g>
   </g>
</svg>
